<?xml version="1.0" encoding="utf-8"?>
<svg xmlns="http://www.w3.org/2000/svg" viewBox="0 0 50 50" fill="#000000"><path d="M 24 2 L 24 3 C 24 3.992188 23.746094 4.527344 23.3125 5.03125 C 22.878906 5.535156 22.195313 5.96875 21.4375 6.46875 C 20.679688 6.96875 19.84375 7.53125 19.15625 8.40625 C 18.613281 9.101563 18.269531 10.0625 18.125 11.15625 C 14.609375 11.535156 11.707031 14.019531 11.21875 17.15625 C 7.066406 17.542969 3 20.84375 3 26.3125 C 3 29.773438 4.417969 32.789063 7.15625 34.84375 C 7.421875 35.042969 7.710938 35.226563 8 35.40625 L 10.21875 45.625 L 10.25 45.65625 L 10.25 45.71875 C 10.667969 46.976563 11.769531 48 13.1875 48 L 36.8125 48 C 38.277344 48 39.484375 46.96875 39.78125 45.625 L 42.53125 33.125 C 43.992188 32.230469 47 29.796875 47 25 C 47 20.078125 42.359375 15.097656 35.8125 13.4375 C 34.671875 7.128906 29.414063 3.101563 25.34375 2.03125 L 25.21875 2 Z M 25.75 4.375 C 29.070313 5.625 33.324219 9.085938 34 14.3125 L 34.09375 15.03125 L 34.78125 15.1875 C 40.894531 16.503906 45 21.28125 45 25 C 45 28.945313 43.148438 30.324219 42.03125 30.96875 C 41.9375 30.691406 42.003906 30.328125 41.84375 30.09375 C 41.363281 29.402344 40.585938 29.007813 39.8125 28.875 C 38.261719 28.605469 36.5625 29.167969 34.96875 30.15625 C 33.457031 31.109375 32.042969 32.53125 29.6875 33.75 C 27.332031 34.96875 24.0625 36 19 36 C 14.902344 36 11.746094 35.253906 9.5 34 C 9.425781 33.9375 9.339844 33.882813 9.25 33.84375 C 8.925781 33.652344 8.625 33.460938 8.34375 33.25 C 6.082031 31.554688 5 29.253906 5 26.3125 C 5 21.867188 8.121094 19.453125 11.28125 19.125 C 11.621094 21.082031 12.582031 22.726563 14.0625 23.8125 C 15.839844 25.113281 18.074219 25.851563 20.28125 26.3125 C 24.695313 27.234375 29.0625 27 29.0625 27 C 29.613281 26.964844 30.035156 26.488281 30 25.9375 C 29.964844 25.386719 29.488281 24.964844 28.9375 25 C 28.9375 25 24.804688 25.195313 20.71875 24.34375 C 18.675781 23.917969 16.660156 23.21875 15.25 22.1875 C 13.855469 21.167969 13.019531 19.929688 13 18.0625 C 13 18.042969 13 18.019531 13 18 C 13 15.609375 15.824219 13 19 13 L 20 13 L 20 12 C 20 10.863281 20.28125 10.214844 20.71875 9.65625 C 21.15625 9.097656 21.820313 8.644531 22.5625 8.15625 C 23.304688 7.667969 24.121094 7.148438 24.8125 6.34375 C 25.253906 5.828125 25.550781 5.140625 25.75 4.375 Z M 38.8125 30.84375 C 39.066406 30.820313 39.28125 30.8125 39.46875 30.84375 C 39.84375 30.910156 40.042969 31.007813 40.1875 31.21875 C 40.332031 31.429688 40.46875 31.808594 40.40625 32.5 L 40.25 34.125 L 37.8125 45.1875 C 37.710938 45.644531 37.347656 46 36.8125 46 L 13.1875 46 C 12.804688 46 12.335938 45.636719 12.15625 45.09375 L 10.28125 36.5625 C 11.589844 37.082031 13.078125 37.449219 14.71875 37.6875 L 15.8125 42.4375 C 15.941406 42.980469 16.488281 43.316406 17.03125 43.1875 C 17.574219 43.058594 17.910156 42.511719 17.78125 41.96875 L 16.8125 37.90625 C 17.519531 37.953125 18.242188 38 19 38 C 19.203125 38 19.394531 37.972656 19.59375 37.96875 L 20.09375 42.3125 C 20.152344 42.863281 20.652344 43.265625 21.203125 43.203125 C 21.753906 43.144531 22.15625 42.644531 22.09375 42.09375 L 21.59375 37.875 C 22.527344 37.804688 23.398438 37.699219 24.21875 37.5625 L 24.40625 42.25 C 24.433594 42.800781 24.902344 43.230469 25.453125 43.203125 C 26.003906 43.175781 26.433594 42.707031 26.40625 42.15625 L 26.21875 37.1875 C 27.28125 36.917969 28.234375 36.574219 29.09375 36.21875 L 28.6875 42.125 C 28.644531 42.675781 29.058594 43.160156 29.609375 43.203125 C 30.160156 43.246094 30.644531 42.832031 30.6875 42.28125 L 31.1875 35.1875 C 32.511719 34.445313 33.542969 33.691406 34.40625 33.03125 C 34.355469 33.140625 34.324219 33.253906 34.3125 33.375 L 33.125 42.0625 C 33.03125 42.433594 33.15625 42.824219 33.449219 43.074219 C 33.742188 43.320313 34.148438 43.378906 34.5 43.222656 C 34.851563 43.066406 35.082031 42.726563 35.09375 42.34375 L 36.28125 33.625 C 36.324219 33.308594 36.214844 32.992188 35.988281 32.769531 C 35.761719 32.546875 35.4375 32.445313 35.125 32.5 C 35.460938 32.246094 35.75 32.019531 36.03125 31.84375 C 37.011719 31.234375 38.046875 30.917969 38.8125 30.84375 Z" fill="#000000"/></svg>
