<?xml version="1.0" encoding="utf-8"?>
<svg xmlns="http://www.w3.org/2000/svg" viewBox="0 0 50 50" fill="#000000"><path d="M 20.90625 0 C 20.757813 0.0117188 20.613281 0.0351563 20.4375 0.09375 C 20.085938 0.210938 19.804688 0.464844 19.625 0.71875 C 19.445313 0.972656 19.335938 1.230469 19.21875 1.53125 C 18.835938 2.507813 17.878906 5.390625 17.40625 6.75 C 17.386719 6.800781 17.390625 6.855469 17.375 6.90625 C 17.363281 6.925781 17.351563 6.949219 17.34375 6.96875 L 13.53125 16.21875 L 13.46875 16.3125 C 13.441406 16.371094 13.421875 16.4375 13.40625 16.5 L 5.09375 36.53125 C 5.082031 36.5625 5.070313 36.59375 5.0625 36.625 L 0.0625 48.625 C -0.0976563 49 -0.015625 49.4375 0.273438 49.726563 C 0.5625 50.015625 1 50.097656 1.375 49.9375 L 42.71875 32.84375 C 42.75 32.835938 42.78125 32.824219 42.8125 32.8125 C 43.796875 32.496094 47.25 31.304688 48.15625 31 C 48.738281 30.804688 49.34375 30.507813 49.71875 29.875 C 50.09375 29.242188 50.0625 28.417969 49.75 27.6875 C 48.625 25.042969 45.8125 16.691406 39.59375 10.46875 C 33.566406 4.441406 25.753906 1.203125 22.125 0.21875 C 21.722656 0.109375 21.355469 -0.03125 20.90625 0 Z M 21.21875 2 C 21.199219 2.023438 21.214844 2.046875 21.625 2.15625 C 24.863281 3.03125 32.523438 6.210938 38.1875 11.875 C 43.984375 17.675781 46.667969 25.558594 47.90625 28.46875 C 48.070313 28.855469 47.996094 28.847656 48 28.84375 C 48.003906 28.839844 47.890625 28.972656 47.53125 29.09375 C 46.574219 29.414063 43.09375 30.625 42.21875 30.90625 C 42.199219 30.914063 42.175781 30.925781 42.15625 30.9375 C 42.160156 30.9375 42.164063 30.910156 42.09375 30.71875 C 41.152344 28.175781 38.511719 22.011719 33.28125 16.78125 C 28.222656 11.722656 22.28125 9.082031 19.59375 8.0625 C 19.34375 7.96875 19.21875 7.898438 19.15625 7.875 C 19.160156 7.851563 19.207031 7.761719 19.21875 7.71875 C 19.265625 7.621094 19.296875 7.515625 19.3125 7.40625 C 19.800781 6.003906 20.800781 3.027344 21.09375 2.28125 C 21.15625 2.121094 21.183594 2.0625 21.21875 2 Z M 18.375 9.75 C 18.546875 9.820313 18.722656 9.878906 18.875 9.9375 C 21.402344 10.894531 27.128906 13.441406 31.875 18.1875 C 36.78125 23.09375 39.335938 29.054688 40.21875 31.4375 C 40.246094 31.507813 40.28125 31.585938 40.3125 31.65625 L 25.65625 37.71875 C 25.859375 37.179688 26 36.609375 26 36 C 26 33.25 23.75 31 21 31 C 18.25 31 16 33.25 16 36 C 16 37.996094 17.203125 39.699219 18.90625 40.5 L 2.875 47.125 L 6 39.59375 C 6.734375 40.441406 7.800781 41 9 41 C 11.195313 41 13 39.199219 13 37 C 13 34.800781 11.195313 33 9 33 C 8.90625 33 8.8125 33.023438 8.71875 33.03125 L 12.21875 24.59375 C 13.316406 26.046875 15.046875 27 17 27 C 20.300781 27 23 24.304688 23 21 C 23 17.695313 20.300781 15 17 15 C 16.726563 15 16.453125 15.027344 16.1875 15.0625 Z M 17 17 C 19.222656 17 21 18.777344 21 21 C 21 23.222656 19.222656 25 17 25 C 15.199219 25 13.699219 23.835938 13.1875 22.21875 L 15.1875 17.4375 C 15.730469 17.160156 16.347656 17 17 17 Z M 31 21 C 28.804688 21 27 22.800781 27 25 C 27 25.324219 27.019531 25.636719 27.09375 25.9375 C 25.835938 26.847656 25 28.335938 25 30 C 25 32.75 27.25 35 30 35 C 32.75 35 35 32.75 35 30 C 35 29.03125 34.703125 28.144531 34.21875 27.375 C 34.710938 26.703125 35 25.886719 35 25 C 35 22.800781 33.195313 21 31 21 Z M 31 23 C 32.117188 23 33 23.882813 33 25 C 33 25.308594 32.9375 25.617188 32.8125 25.875 C 32.007813 25.320313 31.046875 25 30 25 C 29.65625 25 29.324219 25.027344 29 25.09375 C 29 25.0625 29 25.03125 29 25 C 29 23.882813 29.882813 23 31 23 Z M 30 27 C 30.808594 27 31.523438 27.332031 32.0625 27.84375 C 32.136719 27.957031 32.230469 28.050781 32.34375 28.125 C 32.753906 28.636719 33 29.285156 33 30 C 33 31.667969 31.667969 33 30 33 C 28.332031 33 27 31.667969 27 30 C 27 28.882813 27.601563 27.921875 28.5 27.40625 C 28.699219 27.378906 28.882813 27.289063 29.03125 27.15625 C 29.335938 27.054688 29.660156 27 30 27 Z M 21 33 C 22.667969 33 24 34.332031 24 36 C 24 37.667969 22.667969 39 21 39 C 19.332031 39 18 37.667969 18 36 C 18 34.332031 19.332031 33 21 33 Z M 9 35 C 10.117188 35 11 35.882813 11 37 C 11 38.117188 10.117188 39 9 39 C 7.9375 39 7.078125 38.195313 7 37.15625 L 7.6875 35.5 C 8.039063 35.191406 8.492188 35 9 35 Z" fill="#000000"/></svg>
