<?xml version="1.0" encoding="UTF-8"?>
<svg width="28px" height="26px" viewBox="0 0 28 26" version="1.1" xmlns="http://www.w3.org/2000/svg" xmlns:xlink="http://www.w3.org/1999/xlink">
    <!-- Generator: Sketch 64 (93537) - https://sketch.com -->
    <title>dialog</title>
    <desc>Created with Sketch.</desc>
    <g id="Page-1" stroke="none" stroke-width="1" fill="none" fill-rule="evenodd">
        <g id="dialog" fill="#231D43" fill-rule="nonzero">
            <path d="M14,0 C10.210938,0 6.765625,1.113281 4.21875,2.976563 C1.667969,4.835938 0,7.507813 0,10.5 C0,14.128906 2.472656,17.199219 6,19.050781 L6,26 L12.746094,20.9375 C13.15625,20.96875 13.570313,21 14,21 C17.789063,21 21.234375,19.886719 23.78125,18.027344 C26.332031,16.164063 28,13.492188 28,10.5 C28,7.507813 26.332031,4.835938 23.78125,2.976563 C21.234375,1.113281 17.789063,0 14,0 Z M14,2 C17.390625,2 20.445313,3.015625 22.601563,4.589844 C24.757813,6.164063 26,8.246094 26,10.5 C26,12.753906 24.757813,14.835938 22.601563,16.410156 C20.445313,17.984375 17.390625,19 14,19 C13.507813,19 13.015625,18.972656 12.523438,18.925781 L12.140625,18.894531 L8,22 L8,17.859375 L7.421875,17.59375 C4.070313,16.019531 2,13.386719 2,10.5 C2,8.246094 3.242188,6.164063 5.398438,4.589844 C7.554688,3.015625 10.609375,2 14,2 Z" id="Shape"></path>
        </g>
    </g>
</svg>