<?xml version="1.0" encoding="UTF-8"?>
<svg width="24px" height="24px" viewBox="0 0 24 24" version="1.1" xmlns="http://www.w3.org/2000/svg" xmlns:xlink="http://www.w3.org/1999/xlink">
    <!-- Generator: Sketch 64 (93537) - https://sketch.com -->
    <title>search</title>
    <desc>Created with Sketch.</desc>
    <g id="Page-1" stroke="none" stroke-width="1" fill="none" fill-rule="evenodd">
        <g id="search" fill="#231E3F" fill-rule="nonzero">
            <path d="M10,0 C4.4889971,0 0,4.4889971 0,10 C0,15.511003 4.4889971,20 10,20 C12.396508,20 14.597385,19.148986 16.322266,17.736328 L22.292969,23.707031 C22.5437856,23.9682718 22.916236,24.0735066 23.2666781,23.9821498 C23.6171201,23.890793 23.890793,23.6171201 23.9821498,23.2666781 C24.0735066,22.916236 23.9682718,22.5437856 23.707031,22.292969 L17.736328,16.322266 C19.148986,14.597385 20,12.396508 20,10 C20,4.4889971 15.511003,0 10,0 Z M10,2 C14.430123,2 18,5.5698774 18,10 C18,14.430123 14.430123,18 10,18 C5.5698774,18 2,14.430123 2,10 C2,5.5698774 5.5698774,2 10,2 Z" id="Shape"></path>
        </g>
    </g>
</svg>