<svg id="Layer_1" data-name="Layer 1" xmlns="http://www.w3.org/2000/svg" viewBox="0 0 512 512"><title>facebook-flat</title><path d="M0,256C0,114.62,114.62,0,256,0S512,114.63,512,256,397.37,512,256,512,0,397.38,0,256Z" fill="#2b77c1"/><path d="M281.83,189.31c6.3-.21,12.59,0,18.91-.06h2.6V156.51c-3.36-.33-6.88-.82-10.4-1-6.46-.28-12.92-.6-19.4-.45-9.87.19-19.2,2.6-27.36,8.45-9.35,6.72-14.49,16.18-16.45,27.34a94.28,94.28,0,0,0-1.14,14c-.18,7.36,0,14.71,0,22.06v2.76H197.22v36.57h31.16v92h38.07V266.45h31.06c1.59-12.18,3.14-24.22,4.77-36.76-2.5,0-4.74,0-7,0-8.83,0-29.1,0-29.1,0s.09-18.14.31-26C266.81,192.91,273.2,189.62,281.83,189.31Z" fill="#fff" fill-rule="evenodd"/></svg>