<?xml version="1.0" encoding="UTF-8"?>
<svg width="18px" height="18px" viewBox="0 0 18 18" version="1.1" xmlns="http://www.w3.org/2000/svg" xmlns:xlink="http://www.w3.org/1999/xlink">
    <!-- Generator: Sketch 64 (93537) - https://sketch.com -->
    <title>zoom</title>
    <desc>Created with Sketch.</desc>
    <g id="Page-1" stroke="none" stroke-width="1" fill="none" fill-rule="evenodd">
        <g id="zoom" fill="#231D43" fill-rule="nonzero">
            <path d="M2,6 L0,6 L0,2 C0,0.9 0.9,0 2,0 L6,0 L6,2 L2,2 L2,6 Z M6,18 L2,18 C0.9,18 0,17.1 0,16 L0,12 L2,12 L2,16 L6,16 L6,18 Z M16,18 L12,18 L12,16 L16,16 L16,12 L18,12 L18,16 C18,17.1 17.1,18 16,18 Z M18,6 L16,6 L16,2 L12,2 L12,0 L16,0 C17.1,0 18,0.9 18,2 L18,6 Z" id="Shape"></path>
        </g>
    </g>
</svg>