<?xml version="1.0" encoding="UTF-8"?>
<svg width="159px" height="43px" viewBox="0 0 159 43" version="1.1" xmlns="http://www.w3.org/2000/svg" xmlns:xlink="http://www.w3.org/1999/xlink">
    <!-- Generator: Sketch 64 (93537) - https://sketch.com -->
    <title>Artboard</title>
    <desc>Created with Sketch.</desc>
    <defs>
        <path d="M33.7910012,2.44221962 C34.3465502,3.1083839 34.7192384,3.90761649 34.8724499,4.76139382 L40.6038597,36.6999159 C41.0916096,39.4179227 39.2836291,42.016702 36.5656222,42.5044519 C35.6966837,42.6603841 34.8019505,42.5834701 33.9723722,42.2815283 L3.32076162,31.1252544 C0.725872102,30.1807919 -0.612063312,27.3115801 0.332399235,24.7166906 C0.63434105,23.8871123 1.15054492,23.1522676 1.82853882,22.5868533 L26.7487397,1.8046051 C28.8694789,0.036010658 32.0224068,0.321480402 33.7910012,2.44221962 Z M28,31 C26.3431458,31 25,32.3431458 25,34 C25,35.6568542 26.3431458,37 28,37 C29.6568542,37 31,35.6568542 31,34 C31,32.3431458 29.6568542,31 28,31 Z" id="path-1"></path>
    </defs>
    <g id="Artboard" stroke="none" stroke-width="1" fill="none" fill-rule="evenodd">
        <g id="Group-8">
            <g id="Group-3">
                <path d="M59.824,29.24 C61.216,29.24 62.436,29.036 63.484,28.628 C64.532,28.22 65.356,27.632 65.956,26.864 C66.556,26.096 66.856,25.176 66.856,24.104 C66.856,23.144 66.648,22.348 66.232,21.716 C65.816,21.084 65.168,20.568 64.288,20.168 C63.408,19.768 62.264,19.424 60.856,19.136 C59.944,18.896 59.212,18.676 58.66,18.476 C58.108,18.276 57.716,18.044 57.484,17.78 C57.252,17.516 57.136,17.192 57.136,16.808 C57.136,16.216 57.364,15.776 57.82,15.488 C58.276,15.2 58.896,15.056 59.68,15.056 C60.432,15.056 61.044,15.212 61.516,15.524 C61.988,15.836 62.272,16.2 62.368,16.616 C62.448,16.776 62.552,16.888 62.68,16.952 C62.808,17.016 62.952,17.048 63.112,17.048 L63.112,17.048 L65.8,17.048 C65.944,17.048 66.064,16.996 66.16,16.892 C66.256,16.788 66.304,16.672 66.304,16.544 C66.288,16.048 66.136,15.536 65.848,15.008 C65.56,14.48 65.14,13.984 64.588,13.52 C64.036,13.056 63.348,12.68 62.524,12.392 C61.7,12.104 60.752,11.96 59.68,11.96 C58.352,11.96 57.208,12.172 56.248,12.596 C55.288,13.02 54.544,13.604 54.016,14.348 C53.488,15.092 53.224,15.944 53.224,16.904 C53.224,17.864 53.436,18.668 53.86,19.316 C54.284,19.964 54.916,20.492 55.756,20.9 C56.596,21.308 57.616,21.64 58.816,21.896 C59.808,22.136 60.604,22.36 61.204,22.568 C61.804,22.776 62.244,23.008 62.524,23.264 C62.804,23.52 62.944,23.856 62.944,24.272 C62.944,24.848 62.684,25.304 62.164,25.64 C61.644,25.976 60.864,26.144 59.824,26.144 C59.184,26.144 58.648,26.06 58.216,25.892 C57.784,25.724 57.444,25.512 57.196,25.256 C56.948,25 56.768,24.736 56.656,24.464 C56.56,24.336 56.456,24.228 56.344,24.14 C56.232,24.052 56.072,24.008 55.864,24.008 L55.864,24.008 L53.296,24.008 C53.152,24.008 53.032,24.06 52.936,24.164 C52.84,24.268 52.792,24.384 52.792,24.512 C52.824,25.328 53.104,26.096 53.632,26.816 C54.16,27.536 54.94,28.12 55.972,28.568 C57.004,29.016 58.288,29.24 59.824,29.24 Z M77.2528,29 C77.4128,29 77.5488,28.944 77.6608,28.832 C77.7728,28.72 77.8288,28.576 77.8288,28.4 L77.8288,28.4 L77.8288,26.624 C77.8288,26.464 77.7728,26.328 77.6608,26.216 C77.5488,26.104 77.4128,26.048 77.2528,26.048 L77.2528,26.048 L75.5008,26.048 C74.9568,26.048 74.5768,25.876 74.3608,25.532 C74.1448,25.188 74.0368,24.712 74.0368,24.104 L74.0368,24.104 L74.0368,19.352 L77.0368,19.352 C77.1968,19.352 77.3328,19.296 77.4448,19.184 C77.5568,19.072 77.6128,18.928 77.6128,18.752 L77.6128,18.752 L77.6128,17.12 C77.6128,16.944 77.5568,16.8 77.4448,16.688 C77.3328,16.576 77.1968,16.52 77.0368,16.52 L77.0368,16.52 L74.0368,16.52 L74.0368,12.56 C74.0368,12.384 73.9808,12.24 73.8688,12.128 C73.7568,12.016 73.6128,11.96 73.4368,11.96 L73.4368,11.96 L71.0848,11.96 C70.9248,11.96 70.7848,12.016 70.6648,12.128 C70.5448,12.24 70.4848,12.384 70.4848,12.56 L70.4848,12.56 L70.4848,16.52 L68.6128,16.52 C68.4368,16.52 68.2928,16.576 68.1808,16.688 C68.0688,16.8 68.0128,16.944 68.0128,17.12 L68.0128,17.12 L68.0128,18.752 C68.0128,18.928 68.0688,19.072 68.1808,19.184 C68.2928,19.296 68.4368,19.352 68.6128,19.352 L68.6128,19.352 L70.4848,19.352 L70.4848,24.392 C70.4848,25.432 70.6648,26.296 71.0248,26.984 C71.3848,27.672 71.9168,28.18 72.6208,28.508 C73.3248,28.836 74.1728,29 75.1648,29 L75.1648,29 L77.2528,29 Z M83.5936,29.24 C84.2496,29.24 84.8216,29.16 85.3096,29 C85.7976,28.84 86.2176,28.628 86.5696,28.364 C86.9216,28.1 87.2016,27.816 87.4096,27.512 L87.4096,27.512 L87.4096,28.4 C87.4096,28.576 87.4656,28.72 87.5776,28.832 C87.6896,28.944 87.8256,29 87.9856,29 L87.9856,29 L90.3376,29 C90.5136,29 90.6576,28.944 90.7696,28.832 C90.8816,28.72 90.9376,28.576 90.9376,28.4 L90.9376,28.4 L90.9376,20.984 C90.9376,20.328 90.8336,19.716 90.6256,19.148 C90.4176,18.58 90.0976,18.08 89.6656,17.648 C89.2336,17.216 88.6576,16.88 87.9376,16.64 C87.2176,16.4 86.3536,16.28 85.3456,16.28 C84.3696,16.28 83.5456,16.4 82.8736,16.64 C82.2016,16.88 81.6496,17.18 81.2176,17.54 C80.7856,17.9 80.4656,18.264 80.2576,18.632 C80.0496,19 79.9456,19.32 79.9456,19.592 C79.9296,19.736 79.9696,19.86 80.0656,19.964 C80.1616,20.068 80.2976,20.12 80.4736,20.12 L80.4736,20.12 L82.7536,20.12 C82.9936,20.12 83.1776,20.016 83.3056,19.808 C83.4816,19.472 83.7296,19.2 84.0496,18.992 C84.3696,18.784 84.7936,18.68 85.3216,18.68 C86.0416,18.68 86.5456,18.848 86.8336,19.184 C87.1216,19.52 87.2656,20 87.2656,20.624 L87.2656,20.624 L87.2656,21.056 L84.1216,21.512 C82.6176,21.752 81.4056,22.2 80.4856,22.856 C79.5656,23.512 79.1056,24.408 79.1056,25.544 C79.1056,26.232 79.3056,26.856 79.7056,27.416 C80.1056,27.976 80.6416,28.42 81.3136,28.748 C81.9856,29.076 82.7456,29.24 83.5936,29.24 Z M84.5536,26.744 C84.2176,26.744 83.8976,26.688 83.5936,26.576 C83.2896,26.464 83.0456,26.296 82.8616,26.072 C82.6776,25.848 82.5856,25.584 82.5856,25.28 C82.5856,24.864 82.7856,24.512 83.1856,24.224 C83.5856,23.936 84.2176,23.72 85.0816,23.576 L85.0816,23.576 L87.3136,23.216 L87.3136,23.624 C87.3136,24.328 87.1936,24.912 86.9536,25.376 C86.7136,25.84 86.3856,26.184 85.9696,26.408 C85.5536,26.632 85.0816,26.744 84.5536,26.744 Z M96.9424,29 C97.1184,29 97.2624,28.944 97.3744,28.832 C97.4864,28.72 97.5424,28.576 97.5424,28.4 L97.5424,28.4 L97.5424,22.04 C97.5424,21.32 97.7424,20.764 98.1424,20.372 C98.5424,19.98 99.0944,19.784 99.7984,19.784 L99.7984,19.784 L101.9104,19.784 C102.0704,19.784 102.2064,19.728 102.3184,19.616 C102.4304,19.504 102.4864,19.36 102.4864,19.184 L102.4864,19.184 L102.4864,17.12 C102.4864,16.944 102.4304,16.8 102.3184,16.688 C102.2064,16.576 102.0704,16.52 101.9104,16.52 L101.9104,16.52 L100.8784,16.52 C100.1104,16.52 99.4344,16.656 98.8504,16.928 C98.2664,17.2 97.7744,17.584 97.3744,18.08 L97.3744,18.08 L97.3744,17.12 C97.3744,16.96 97.3144,16.82 97.1944,16.7 C97.0744,16.58 96.9344,16.52 96.7744,16.52 L96.7744,16.52 L94.4224,16.52 C94.2624,16.52 94.1264,16.58 94.0144,16.7 C93.9024,16.82 93.8464,16.96 93.8464,17.12 L93.8464,17.12 L93.8464,28.4 C93.8464,28.576 93.9024,28.72 94.0144,28.832 C94.1264,28.944 94.2624,29 94.4224,29 L94.4224,29 L96.9424,29 Z M111.5392,29.24 C112.3712,29.24 113.0952,29.108 113.7112,28.844 C114.3272,28.58 114.8472,28.196 115.2712,27.692 C115.6952,27.188 116.0232,26.588 116.2552,25.892 C116.4872,25.196 116.6192,24.424 116.6512,23.576 C116.6672,23.272 116.6752,22.996 116.6752,22.748 C116.6752,22.5 116.6672,22.232 116.6512,21.944 C116.6352,21.112 116.5112,20.352 116.2792,19.664 C116.0472,18.976 115.7152,18.38 115.2832,17.876 C114.8512,17.372 114.3272,16.98 113.7112,16.7 C113.0952,16.42 112.3712,16.28 111.5392,16.28 C110.7232,16.28 110.0192,16.42 109.4272,16.7 C108.8352,16.98 108.3392,17.344 107.9392,17.792 L107.9392,17.792 L107.9392,12.56 C107.9392,12.384 107.8832,12.24 107.7712,12.128 C107.6592,12.016 107.5232,11.96 107.3632,11.96 L107.3632,11.96 L104.8912,11.96 C104.7152,11.96 104.5712,12.016 104.4592,12.128 C104.3472,12.24 104.2912,12.384 104.2912,12.56 L104.2912,12.56 L104.2912,28.4 C104.2912,28.576 104.3472,28.72 104.4592,28.832 C104.5712,28.944 104.7152,29 104.8912,29 L104.8912,29 L107.1712,29 C107.3472,29 107.4912,28.944 107.6032,28.832 C107.7152,28.72 107.7712,28.576 107.7712,28.4 L107.7712,28.4 L107.7712,27.584 C108.1552,28.064 108.6512,28.46 109.2592,28.772 C109.8672,29.084 110.6272,29.24 111.5392,29.24 Z M110.4592,26.36 C109.8672,26.36 109.3872,26.224 109.0192,25.952 C108.6512,25.68 108.3872,25.336 108.2272,24.92 C108.0672,24.504 107.9712,24.056 107.9392,23.576 C107.9232,23.272 107.9152,22.968 107.9152,22.664 C107.9152,22.36 107.9232,22.064 107.9392,21.776 C107.9552,21.328 108.0552,20.908 108.2392,20.516 C108.4232,20.124 108.6952,19.8 109.0552,19.544 C109.4152,19.288 109.8832,19.16 110.4592,19.16 C111.0672,19.16 111.5472,19.292 111.8992,19.556 C112.2512,19.82 112.5032,20.168 112.6552,20.6 C112.8072,21.032 112.8992,21.504 112.9312,22.016 C112.9632,22.512 112.9632,23.008 112.9312,23.504 C112.8992,24.016 112.8072,24.488 112.6552,24.92 C112.5032,25.352 112.2512,25.7 111.8992,25.964 C111.5472,26.228 111.0672,26.36 110.4592,26.36 Z M124.792,29.24 C125.72,29.24 126.54,29.12 127.252,28.88 C127.964,28.64 128.56,28.34 129.04,27.98 C129.52,27.62 129.884,27.252 130.132,26.876 C130.38,26.5 130.512,26.184 130.528,25.928 C130.544,25.768 130.5,25.644 130.396,25.556 C130.292,25.468 130.16,25.424 130,25.424 L130,25.424 L127.504,25.424 C127.312,25.424 127.172,25.444 127.084,25.484 C126.996,25.524 126.88,25.624 126.736,25.784 C126.656,25.896 126.532,26.032 126.364,26.192 C126.196,26.352 125.984,26.488 125.728,26.6 C125.472,26.712 125.144,26.768 124.744,26.768 C124.264,26.768 123.852,26.64 123.508,26.384 C123.164,26.128 122.9,25.788 122.716,25.364 C122.532,24.94 122.432,24.472 122.416,23.96 L122.416,23.96 L122.416,23.768 L130.264,23.768 C130.424,23.768 130.564,23.712 130.684,23.6 C130.804,23.488 130.864,23.352 130.864,23.192 L130.864,23.192 L130.864,22.64 C130.864,21.408 130.636,20.316 130.18,19.364 C129.724,18.412 129.044,17.66 128.14,17.108 C127.236,16.556 126.112,16.28 124.768,16.28 C123.568,16.28 122.52,16.516 121.624,16.988 C120.728,17.46 120.032,18.14 119.536,19.028 C119.04,19.916 118.76,20.976 118.696,22.208 L118.696,22.208 L118.696,23.24 C118.76,25.192 119.332,26.68 120.412,27.704 C121.492,28.728 122.952,29.24 124.792,29.24 Z M127.12,21.584 L122.416,21.584 L122.416,21.536 C122.416,20.96 122.508,20.46 122.692,20.036 C122.876,19.612 123.144,19.28 123.496,19.04 C123.848,18.8 124.272,18.68 124.768,18.68 C125.264,18.68 125.688,18.8 126.04,19.04 C126.392,19.28 126.66,19.612 126.844,20.036 C127.028,20.46 127.12,20.96 127.12,21.536 L127.12,21.536 L127.12,21.584 Z M136.2688,29 C136.4288,29 136.5648,28.944 136.6768,28.832 C136.7888,28.72 136.8448,28.576 136.8448,28.4 L136.8448,28.4 L136.8448,12.56 C136.8448,12.384 136.7888,12.24 136.6768,12.128 C136.5648,12.016 136.4288,11.96 136.2688,11.96 L136.2688,11.96 L133.8688,11.96 C133.6928,11.96 133.5488,12.016 133.4368,12.128 C133.3248,12.24 133.2688,12.384 133.2688,12.56 L133.2688,12.56 L133.2688,28.4 C133.2688,28.576 133.3248,28.72 133.4368,28.832 C133.5488,28.944 133.6928,29 133.8688,29 L133.8688,29 L136.2688,29 Z M142.8736,29 C143.0336,29 143.1696,28.944 143.2816,28.832 C143.3936,28.72 143.4496,28.576 143.4496,28.4 L143.4496,28.4 L143.4496,12.56 C143.4496,12.384 143.3936,12.24 143.2816,12.128 C143.1696,12.016 143.0336,11.96 142.8736,11.96 L142.8736,11.96 L140.4736,11.96 C140.2976,11.96 140.1536,12.016 140.0416,12.128 C139.9296,12.24 139.8736,12.384 139.8736,12.56 L139.8736,12.56 L139.8736,28.4 C139.8736,28.576 139.9296,28.72 140.0416,28.832 C140.1536,28.944 140.2976,29 140.4736,29 L140.4736,29 L142.8736,29 Z M151.0144,33.56 C151.2224,33.56 151.3784,33.512 151.4824,33.416 C151.5864,33.32 151.6624,33.208 151.7104,33.08 L151.7104,33.08 L158.5024,17.36 C158.5664,17.216 158.5984,17.104 158.5984,17.024 C158.5984,16.896 158.5464,16.78 158.4424,16.676 C158.3384,16.572 158.2144,16.52 158.0704,16.52 L158.0704,16.52 L155.7904,16.52 C155.5824,16.52 155.4304,16.568 155.3344,16.664 C155.2384,16.76 155.1584,16.872 155.0944,17 L155.0944,17 L152.0464,24.44 L149.0704,17 C149.0224,16.888 148.9504,16.78 148.8544,16.676 C148.7584,16.572 148.6064,16.52 148.3984,16.52 L148.3984,16.52 L146.0704,16.52 C145.9264,16.52 145.8064,16.572 145.7104,16.676 C145.6144,16.78 145.5584,16.904 145.5424,17.048 C145.5424,17.128 145.5664,17.232 145.6144,17.36 L145.6144,17.36 L150.2224,28.232 L148.3504,32.72 C148.3184,32.8 148.2944,32.868 148.2784,32.924 C148.2624,32.98 148.2544,33.024 148.2544,33.056 C148.2544,33.2 148.3064,33.32 148.4104,33.416 C148.5144,33.512 148.6304,33.56 148.7584,33.56 L148.7584,33.56 L151.0144,33.56 Z" id="Starbelly" fill="#261F41" fill-rule="nonzero"></path>
                <g id="Oval">
                    <g>
                        <mask id="mask-2" fill="white">
                            <use xlink:href="#path-1"></use>
                        </mask>
                        <use id="Combined-Shape" fill="#F7C532" xlink:href="#path-1"></use>
                    </g>
                </g>
            </g>
        </g>
        <circle id="Oval" fill="#F7C532" cx="152" cy="13" r="2"></circle>
    </g>
</svg>